<svg xmlns="http://www.w3.org/2000/svg" xmlns:xlink="http://www.w3.org/1999/xlink" version="1.1" class="marks" width="773" height="284" viewBox="0 0 773 284"><rect width="773" height="284" fill="#fff"/><g fill="none" stroke-miterlimit="10" transform="translate(55,27)"><g class="mark-group role-frame root" role="graphics-object" aria-roledescription="group mark container"><g transform="translate(0,0)"><path class="background" aria-hidden="true" d="M0.5,0.5h600v200h-600Z" stroke="#ddd"/><g><g class="mark-group role-axis" aria-hidden="true"><g transform="translate(0.5,0.5)"><path class="background" aria-hidden="true" d="M0,0h0v0h0Z" pointer-events="none"/><g><g class="mark-rule role-axis-grid" pointer-events="none"><line transform="translate(0,200)" x2="600" y2="0" stroke="#e1e8f0" stroke-width="1" opacity="1"/><line transform="translate(0,158)" x2="600" y2="0" stroke="#e1e8f0" stroke-width="1" opacity="1"/><line transform="translate(0,117)" x2="600" y2="0" stroke="#e1e8f0" stroke-width="1" opacity="1"/><line transform="translate(0,75)" x2="600" y2="0" stroke="#e1e8f0" stroke-width="1" opacity="1"/><line transform="translate(0,33)" x2="600" y2="0" stroke="#e1e8f0" stroke-width="1" opacity="1"/></g></g><path class="foreground" aria-hidden="true" d="" pointer-events="none" display="none"/></g></g><g class="mark-group role-axis" role="graphics-symbol" aria-roledescription="axis" aria-label="X-axis titled 'Benchmark' for a discrete scale with 19 values: dj-10, dj-11, dj-12, dj-13, dj-14, ending with dj-9"><g transform="translate(0.5,200.5)"><path class="background" aria-hidden="true" d="M0,0h0v0h0Z" pointer-events="none"/><g><g class="mark-rule role-axis-tick" pointer-events="none"><line transform="translate(16,0)" x2="0" y2="5" stroke="#888" stroke-width="1" opacity="1"/><line transform="translate(47,0)" x2="0" y2="5" stroke="#888" stroke-width="1" opacity="1"/><line transform="translate(79,0)" x2="0" y2="5" stroke="#888" stroke-width="1" opacity="1"/><line transform="translate(111,0)" x2="0" y2="5" stroke="#888" stroke-width="1" opacity="1"/><line transform="translate(142,0)" x2="0" y2="5" stroke="#888" stroke-width="1" opacity="1"/><line transform="translate(174,0)" x2="0" y2="5" stroke="#888" stroke-width="1" opacity="1"/><line transform="translate(205,0)" x2="0" y2="5" stroke="#888" stroke-width="1" opacity="1"/><line transform="translate(237,0)" x2="0" y2="5" stroke="#888" stroke-width="1" opacity="1"/><line transform="translate(268,0)" x2="0" y2="5" stroke="#888" stroke-width="1" opacity="1"/><line transform="translate(300,0)" x2="0" y2="5" stroke="#888" stroke-width="1" opacity="1"/><line transform="translate(332,0)" x2="0" y2="5" stroke="#888" stroke-width="1" opacity="1"/><line transform="translate(363,0)" x2="0" y2="5" stroke="#888" stroke-width="1" opacity="1"/><line transform="translate(395,0)" x2="0" y2="5" stroke="#888" stroke-width="1" opacity="1"/><line transform="translate(426,0)" x2="0" y2="5" stroke="#888" stroke-width="1" opacity="1"/><line transform="translate(458,0)" x2="0" y2="5" stroke="#888" stroke-width="1" opacity="1"/><line transform="translate(489,0)" x2="0" y2="5" stroke="#888" stroke-width="1" opacity="1"/><line transform="translate(521,0)" x2="0" y2="5" stroke="#888" stroke-width="1" opacity="1"/><line transform="translate(553,0)" x2="0" y2="5" stroke="#888" stroke-width="1" opacity="1"/><line transform="translate(584,0)" x2="0" y2="5" stroke="#888" stroke-width="1" opacity="1"/></g><g class="mark-text role-axis-label" pointer-events="none"><text text-anchor="end" transform="translate(15.78947368421052,7) rotate(270) translate(0,3)" font-family="sans-serif" font-size="10px" fill="#000" opacity="1">dj-10</text><text text-anchor="end" transform="translate(47.368421052631575,7) rotate(270) translate(0,3)" font-family="sans-serif" font-size="10px" fill="#000" opacity="1">dj-11</text><text text-anchor="end" transform="translate(78.94736842105263,7) rotate(270) translate(0,3)" font-family="sans-serif" font-size="10px" fill="#000" opacity="1">dj-12</text><text text-anchor="end" transform="translate(110.52631578947367,7) rotate(270) translate(0,3)" font-family="sans-serif" font-size="10px" fill="#000" opacity="1">dj-13</text><text text-anchor="end" transform="translate(142.10526315789474,7) rotate(270) translate(0,3)" font-family="sans-serif" font-size="10px" fill="#000" opacity="1">dj-14</text><text text-anchor="end" transform="translate(173.68421052631578,7) rotate(270) translate(0,3)" font-family="sans-serif" font-size="10px" fill="#000" opacity="1">dj-15</text><text text-anchor="end" transform="translate(205.26315789473682,7) rotate(270) translate(0,3)" font-family="sans-serif" font-size="10px" fill="#000" opacity="1">dj-16</text><text text-anchor="end" transform="translate(236.8421052631579,7) rotate(270) translate(0,3)" font-family="sans-serif" font-size="10px" fill="#000" opacity="1">dj-17</text><text text-anchor="end" transform="translate(268.42105263157896,7) rotate(270) translate(0,3)" font-family="sans-serif" font-size="10px" fill="#000" opacity="1">dj-18</text><text text-anchor="end" transform="translate(300,7) rotate(270) translate(0,3)" font-family="sans-serif" font-size="10px" fill="#000" opacity="1">dj-19</text><text text-anchor="end" transform="translate(331.57894736842104,7) rotate(270) translate(0,3)" font-family="sans-serif" font-size="10px" fill="#000" opacity="1">dj-2</text><text text-anchor="end" transform="translate(363.1578947368421,7) rotate(270) translate(0,3)" font-family="sans-serif" font-size="10px" fill="#000" opacity="1">dj-20</text><text text-anchor="end" transform="translate(394.7368421052631,7) rotate(270) translate(0,3)" font-family="sans-serif" font-size="10px" fill="#000" opacity="1">dj-3</text><text text-anchor="end" transform="translate(426.31578947368416,7) rotate(270) translate(0,3)" font-family="sans-serif" font-size="10px" fill="#000" opacity="1">dj-4</text><text text-anchor="end" transform="translate(457.89473684210526,7) rotate(270) translate(0,3)" font-family="sans-serif" font-size="10px" fill="#000" opacity="1">dj-5</text><text text-anchor="end" transform="translate(489.4736842105263,7) rotate(270) translate(0,3)" font-family="sans-serif" font-size="10px" fill="#000" opacity="1">dj-6</text><text text-anchor="end" transform="translate(521.0526315789473,7) rotate(270) translate(0,3)" font-family="sans-serif" font-size="10px" fill="#000" opacity="1">dj-7</text><text text-anchor="end" transform="translate(552.6315789473684,7) rotate(270) translate(0,3)" font-family="sans-serif" font-size="10px" fill="#000" opacity="1">dj-8</text><text text-anchor="end" transform="translate(584.2105263157895,7) rotate(270) translate(0,3)" font-family="sans-serif" font-size="10px" fill="#000" opacity="1">dj-9</text></g><g class="mark-rule role-axis-domain" pointer-events="none"><line transform="translate(0,0)" x2="600" y2="0" stroke="#e1e8f0" stroke-width="1" opacity="1"/></g><g class="mark-text role-axis-title" pointer-events="none"><text text-anchor="middle" transform="translate(300,49.43478202819824)" font-family="sans-serif" font-size="11px" font-weight="400" fill="#1c2a3a" opacity="1">Benchmark</text></g></g><path class="foreground" aria-hidden="true" d="" pointer-events="none" display="none"/></g></g><g class="mark-group role-axis" role="graphics-symbol" aria-roledescription="axis" aria-label="Y-axis titled 'Time' for a linear scale with values from 0 to 24"><g transform="translate(0.5,0.5)"><path class="background" aria-hidden="true" d="M0,0h0v0h0Z" pointer-events="none"/><g><g class="mark-rule role-axis-tick" pointer-events="none"><line transform="translate(0,200)" x2="-5" y2="0" stroke="#888" stroke-width="1" opacity="1"/><line transform="translate(0,158)" x2="-5" y2="0" stroke="#888" stroke-width="1" opacity="1"/><line transform="translate(0,117)" x2="-5" y2="0" stroke="#888" stroke-width="1" opacity="1"/><line transform="translate(0,75)" x2="-5" y2="0" stroke="#888" stroke-width="1" opacity="1"/><line transform="translate(0,33)" x2="-5" y2="0" stroke="#888" stroke-width="1" opacity="1"/></g><g class="mark-text role-axis-label" pointer-events="none"><text text-anchor="end" transform="translate(-13,204)" font-family="sans-serif" font-size="12px" fill="#000" opacity="1">0</text><text text-anchor="end" transform="translate(-13,162.33333333333331)" font-family="sans-serif" font-size="12px" fill="#000" opacity="1">5</text><text text-anchor="end" transform="translate(-13,120.66666666666666)" font-family="sans-serif" font-size="12px" fill="#000" opacity="1">10</text><text text-anchor="end" transform="translate(-13,79)" font-family="sans-serif" font-size="12px" fill="#000" opacity="1">15</text><text text-anchor="end" transform="translate(-13,37.33333333333333)" font-family="sans-serif" font-size="12px" fill="#000" opacity="1">20</text></g><g class="mark-rule role-axis-domain" pointer-events="none"><line transform="translate(0,200)" x2="0" y2="-200" stroke="#888" stroke-width="1" opacity="1"/></g><g class="mark-text role-axis-title" pointer-events="none"><text text-anchor="middle" transform="translate(-36.78260898590088,100) rotate(-90) translate(0,-3)" font-family="sans-serif" font-size="12px" font-weight="400" fill="#1c2a3a" opacity="1">Time</text></g></g><path class="foreground" aria-hidden="true" d="" pointer-events="none" display="none"/></g></g><g class="mark-group role-scope pathgroup" role="graphics-object" aria-roledescription="group mark container"><g transform="translate(0,0)"><path class="background" aria-hidden="true" d="M0,0h600v200h-600Z"/><g><g class="mark-area role-mark marks" role="graphics-object" aria-roledescription="area mark container"><path aria-label="Benchmark: dj-10; Time: 2.564; Implemenation: pyzx" role="graphics-symbol" aria-roledescription="area mark" d="M15.789,84.957L47.368,65.901L78.947,72.899L110.526,69.524L142.105,57.847L173.684,52.21L205.263,15.374L236.842,47.6L268.421,28.086L300,38.695L331.579,111.449L363.158,59.815L394.737,133.764L426.316,127.538L457.895,126.238L489.474,95.921L521.053,102.073L552.632,93.897L584.211,101.341L584.211,119.867L552.632,120.698L521.053,118.455L489.474,105.389L457.895,134.598L426.316,134.586L394.737,139.081L363.158,100.512L331.579,115.248L300,72.657L268.421,62.885L236.842,80.224L205.263,47.591L173.684,80.019L142.105,86.133L110.526,94.28L78.947,96.839L47.368,87.959L15.789,106.324Z" fill="#6583ff"/></g></g><path class="foreground" aria-hidden="true" d="" display="none"/></g><g transform="translate(0,0)"><path class="background" aria-hidden="true" d="M0,0h600v200h-600Z"/><g><g class="mark-area role-mark marks" role="graphics-object" aria-roledescription="area mark container"><path aria-label="Benchmark: dj-10; Time: 3.232083; Implemenation: qcec_zx" role="graphics-symbol" aria-roledescription="area mark" d="M15.789,173.066L47.368,152.38L78.947,163.453L110.526,162.446L142.105,161.611L173.684,153.876L205.263,160.851L236.842,159.741L268.421,157.976L300,166.123L331.579,166.924L363.158,166.244L394.737,176.459L426.316,175.447L457.895,173.096L489.474,170.408L521.053,169.737L552.632,168.447L584.211,169.569L584.211,200L552.632,200L521.053,200L489.474,200L457.895,200L426.316,200L394.737,200L363.158,200L331.579,200L300,200L268.421,200L236.842,200L205.263,200L173.684,200L142.105,200L110.526,200L78.947,200L47.368,200L15.789,200Z" fill="#e2474d"/></g></g><path class="foreground" aria-hidden="true" d="" display="none"/></g><g transform="translate(0,0)"><path class="background" aria-hidden="true" d="M0,0h600v200h-600Z"/><g><g class="mark-area role-mark marks" role="graphics-object" aria-roledescription="area mark container"><path aria-label="Benchmark: dj-10; Time: 8.009042; Implemenation: qcec_qmdd" role="graphics-symbol" aria-roledescription="area mark" d="M15.789,106.324L47.368,87.959L78.947,96.839L110.526,94.28L142.105,86.133L173.684,80.019L205.263,47.591L236.842,80.224L268.421,62.885L300,72.657L331.579,115.248L363.158,100.512L394.737,139.081L426.316,134.586L457.895,134.598L489.474,105.389L521.053,118.455L552.632,120.698L584.211,119.867L584.211,169.569L552.632,168.447L521.053,169.737L489.474,170.408L457.895,173.096L426.316,175.447L394.737,176.459L363.158,166.244L331.579,166.924L300,166.123L268.421,157.976L236.842,159.741L205.263,160.851L173.684,153.876L142.105,161.611L110.526,162.446L78.947,163.453L47.368,152.38L15.789,173.066Z" fill="#ffa83f"/></g></g><path class="foreground" aria-hidden="true" d="" display="none"/></g></g><g class="mark-group role-legend" role="graphics-symbol" aria-roledescription="legend" aria-label="Symbol legend titled 'Implemenation' for fill color with 3 values: pyzx, qcec_qmdd, qcec_zx"><g transform="translate(618,0)"><path class="background" aria-hidden="true" d="M0,0h95v63h-95Z" pointer-events="none"/><g><g class="mark-group role-legend-entry"><g transform="translate(0,23)"><path class="background" aria-hidden="true" d="M0,0h0v0h0Z" pointer-events="none"/><g><g class="mark-group role-scope" role="graphics-object" aria-roledescription="group mark container"><g transform="translate(0,0)"><path class="background" aria-hidden="true" d="M0,0h80.65217590332031v12h-80.65217590332031Z" pointer-events="none" opacity="1"/><g><g class="mark-symbol role-legend-symbol" pointer-events="none"><path transform="translate(6,6)" d="M5,0A5,5,0,1,1,-5,0A5,5,0,1,1,5,0" fill="#6583ff" stroke-width="1.5" opacity="1"/></g><g class="mark-text role-legend-label" pointer-events="none"><text text-anchor="start" transform="translate(16,10)" font-family="sans-serif" font-size="12px" fill="#000" opacity="1">pyzx</text></g></g><path class="foreground" aria-hidden="true" d="" pointer-events="none" display="none"/></g><g transform="translate(0,14)"><path class="background" aria-hidden="true" d="M0,0h80.65217590332031v12h-80.65217590332031Z" pointer-events="none" opacity="1"/><g><g class="mark-symbol role-legend-symbol" pointer-events="none"><path transform="translate(6,6)" d="M5,0A5,5,0,1,1,-5,0A5,5,0,1,1,5,0" fill="#ffa83f" stroke-width="1.5" opacity="1"/></g><g class="mark-text role-legend-label" pointer-events="none"><text text-anchor="start" transform="translate(16,10)" font-family="sans-serif" font-size="12px" fill="#000" opacity="1">qcec_qmdd</text></g></g><path class="foreground" aria-hidden="true" d="" pointer-events="none" display="none"/></g><g transform="translate(0,28)"><path class="background" aria-hidden="true" d="M0,0h80.65217590332031v12h-80.65217590332031Z" pointer-events="none" opacity="1"/><g><g class="mark-symbol role-legend-symbol" pointer-events="none"><path transform="translate(6,6)" d="M5,0A5,5,0,1,1,-5,0A5,5,0,1,1,5,0" fill="#e2474d" stroke-width="1.5" opacity="1"/></g><g class="mark-text role-legend-label" pointer-events="none"><text text-anchor="start" transform="translate(16,10)" font-family="sans-serif" font-size="12px" fill="#000" opacity="1">qcec_zx</text></g></g><path class="foreground" aria-hidden="true" d="" pointer-events="none" display="none"/></g></g></g><path class="foreground" aria-hidden="true" d="" pointer-events="none" display="none"/></g></g><g class="mark-text role-legend-title" pointer-events="none"><text text-anchor="start" transform="translate(0,10)" font-family="sans-serif" font-size="13px" font-weight="400" fill="#000" opacity="1">Implemenation</text></g></g><path class="foreground" aria-hidden="true" d="" pointer-events="none" display="none"/></g></g><g class="mark-group role-title"><g transform="translate(331.60869550704956,-22)"><path class="background" aria-hidden="true" d="M0,0h0v0h0Z" pointer-events="none"/><g><g class="mark-text role-title-text" role="graphics-symbol" aria-roledescription="title" aria-label="Title text 'Runtime '" pointer-events="none"><text text-anchor="middle" transform="translate(0,14)" font-family="Inter" font-size="18px" font-weight="400" fill="#445668" opacity="1">Runtime</text></g></g><path class="foreground" aria-hidden="true" d="" pointer-events="none" display="none"/></g></g></g><path class="foreground" aria-hidden="true" d="" display="none"/></g></g></g></svg>